<svg width="22" height="22" viewBox="0 0 22 22" fill="none" xmlns="http://www.w3.org/2000/svg">
<rect width="22" height="22" rx="6" fill="#C4C4C4" fill-opacity="0.341176"/>
<path d="M14.7867 8.21298C14.8534 8.14844 14.9066 8.07123 14.9432 7.98585C14.9798 7.90047 14.9991 7.80863 15 7.7157C15.0008 7.62276 14.9832 7.53058 14.9482 7.44454C14.9131 7.3585 14.8613 7.28033 14.7959 7.21458C14.7304 7.14883 14.6525 7.09682 14.5668 7.06158C14.481 7.02635 14.3892 7.00859 14.2965 7.00936C14.2039 7.01012 14.1123 7.02939 14.0271 7.06603C13.942 7.10267 13.865 7.15596 13.8006 7.22278L11.004 10.0273L8.20825 7.22278C8.14437 7.15401 8.06734 7.09885 7.98175 7.06059C7.89616 7.02234 7.80376 7.00177 7.71007 7.00011C7.61638 6.99845 7.52332 7.01574 7.43644 7.05094C7.34955 7.08615 7.27063 7.13855 7.20437 7.20501C7.13811 7.27148 7.08588 7.35065 7.05078 7.43781C7.01569 7.52496 6.99846 7.61832 7.00011 7.7123C7.00176 7.80628 7.02227 7.89897 7.06041 7.98483C7.09854 8.07069 7.15353 8.14797 7.22208 8.21205L10.0159 11.0175L7.22022 13.8219C7.09697 13.9546 7.02987 14.1301 7.03306 14.3115C7.03625 14.4928 7.10948 14.6658 7.23732 14.7941C7.36516 14.9223 7.53763 14.9958 7.7184 14.999C7.89917 15.0022 8.07412 14.9348 8.20639 14.8112L11.004 12.0067L13.7996 14.8121C13.9319 14.9358 14.1069 15.0031 14.2876 14.9999C14.4684 14.9967 14.6409 14.9232 14.7687 14.795C14.8966 14.6667 14.9698 14.4937 14.973 14.3124C14.9762 14.1311 14.9091 13.9556 14.7858 13.8229L11.992 11.0175L14.7867 8.21298Z" fill="#263032"/>
</svg>
